<svg width="146" height="145" viewBox="0 0 146 145" fill="none" xmlns="http://www.w3.org/2000/svg">
<path d="M72.8151 0C32.7707 0 0.26709 32.4627 0.26709 72.4567C0.26709 112.537 32.7707 144.913 72.8151 144.913C112.946 144.913 145.363 112.451 145.363 72.4567C145.45 32.4627 112.946 0 72.8151 0ZM106.099 104.573C104.799 106.737 102.025 107.343 99.8581 106.045C82.7828 95.6567 61.3738 93.3194 36.0644 99.0328C33.6374 99.5522 31.2105 98.0806 30.6904 95.6567C30.1704 93.2328 31.6439 90.809 34.0708 90.2896C61.7205 83.9702 85.4698 86.6537 104.539 98.3403C106.792 99.6388 107.486 102.409 106.099 104.573ZM115.026 84.8358C113.38 87.5194 109.912 88.2985 107.226 86.7403C87.7234 74.7075 57.9934 71.2448 34.9376 78.2567C31.9039 79.1224 28.7836 77.4776 27.9168 74.5343C27.05 71.5045 28.6969 68.3881 31.7306 67.5224C58.0801 59.5582 90.8437 63.3672 113.293 77.1313C115.806 78.6896 116.673 82.1522 115.026 84.8358ZM115.806 64.2328C92.4039 50.3821 53.833 49.0836 31.4705 55.8358C27.9168 56.9612 24.103 54.8836 22.9763 51.3343C21.8495 47.7851 23.9297 43.9761 27.4834 42.8507C53.1396 35.0597 95.7843 36.6179 122.654 52.5463C125.861 54.4507 126.901 58.606 124.994 61.809C123.174 65.0985 119.014 66.1373 115.806 64.2328Z" fill="#1ED760"/>
</svg>
